<svg width="176" height="49" viewBox="0 0 176 49" fill="none" xmlns="http://www.w3.org/2000/svg">
<g clip-path="url(#clip0_3630_46649)">
<path d="M8.6267 0.992432C4.36577 0.992432 0.898438 4.4813 0.898438 8.76869V26.1638C0.898438 28.0811 1.56234 30.3152 3.34452 32.1048L20.1279 48.9924V38.984H168.17C172.432 38.984 175.898 35.4951 175.898 31.2077V8.76869C175.898 4.48039 172.431 0.992432 168.17 0.992432H8.6267Z" fill="white"/>
<path d="M168.17 3.68646H8.62602C5.83619 3.68646 3.57422 5.96248 3.57422 8.76964V26.1647C3.57422 27.6787 4.17191 29.1306 5.23578 30.2011L17.449 42.4902V36.2918H168.17C170.959 36.2918 173.221 34.0158 173.221 31.2086V8.76873C173.221 5.96157 170.959 3.68555 168.17 3.68555V3.68646ZM168.854 32.1459H17.4499V36.2909L7.94126 26.7232V7.83149H168.854V32.145V32.1459Z" fill="#E60000"/>
<path d="M133.293 14.9462V26.7224H130.456V18.0527C130.456 18.0527 128.032 21.5361 127.224 22.6969C126.585 23.6159 125.232 23.6159 124.592 22.6969C123.784 21.5361 121.36 18.0527 121.36 18.0527V26.7224H118.523V14.9462C118.523 14.3503 118.8 13.7763 119.287 13.4368C120.09 12.8774 121.192 13.0745 121.752 13.8803C122.791 15.3733 125.907 19.8514 125.907 19.8514C125.907 19.8514 129.023 15.3733 130.062 13.8803C130.622 13.0745 131.724 12.8764 132.527 13.4368C133.014 13.7763 133.292 14.3503 133.292 14.9462H133.293ZM100.055 21.9267C100.055 21.9267 95.8557 15.8926 94.4563 13.8812C93.894 13.0727 92.7866 12.8764 91.9839 13.4423C91.5096 13.7763 91.2266 14.3393 91.2266 14.9216C91.2266 17.8757 91.2266 26.7224 91.2266 26.7224H94.0636V18.0527C94.0636 18.0527 98.261 24.0841 99.6605 26.0945C100.223 26.9031 101.33 27.0993 102.133 26.5335C102.607 26.1995 102.89 25.6364 102.89 25.0542V13.2543H100.055V21.9276V21.9267ZM142.952 15.4089C144.328 15.4089 145.571 16.0231 146.443 16.9466L148.04 14.719C146.696 13.6102 144.904 12.9841 142.953 12.9841C138.84 12.9841 135.299 15.7603 135.299 19.9883C135.299 24.2164 138.84 26.9925 142.953 26.9925C144.904 26.9925 146.696 26.3665 148.04 25.2577L146.443 23.03C145.571 23.9536 144.328 24.5678 142.952 24.5678C140.331 24.5678 138.533 22.5171 138.533 19.9883C138.533 17.4595 140.331 15.4089 142.952 15.4089ZM163.503 19.9883C163.503 24.2155 160.065 26.9925 156.074 26.9925C152.082 26.9925 148.645 24.2164 148.645 19.9883C148.645 15.7603 152.082 12.9841 156.074 12.9841C160.065 12.9841 163.503 15.7603 163.503 19.9883ZM160.363 19.9883C160.363 17.4595 158.618 15.4144 156.074 15.4144C153.53 15.4144 151.785 17.4595 151.785 19.9883C151.785 22.5171 153.53 24.5623 156.074 24.5623C158.618 24.5623 160.363 22.5171 160.363 19.9883ZM112.647 14.447C113.88 17.5161 117.577 26.7233 117.577 26.7233H114.547L113.345 23.6469H107.882L106.68 26.7233H103.677C103.677 26.7233 107.373 17.5161 108.606 14.447C108.998 13.4724 109.778 12.985 110.627 12.985C111.476 12.985 112.256 13.4724 112.647 14.447ZM112.451 21.3572L110.613 16.6528L108.775 21.3572H112.45H112.451ZM26.734 23.0866C26.734 24.9839 25.3527 26.7233 23.0146 26.7233H15.7389C15.0759 26.7233 14.6016 26.2451 14.6016 25.5789C14.6016 22.7845 14.6016 17.1949 14.6016 14.3996C14.6016 13.7325 15.0768 13.2552 15.7389 13.2552H22.2146C24.4358 13.2552 25.9704 14.7728 25.9704 16.5953C25.9704 18.1047 24.9383 19.4034 23.5297 19.7958C25.3464 19.9126 26.734 21.2696 26.734 23.0866ZM17.4386 18.7089H21.1372C22.172 18.7089 22.8305 18.0308 22.8305 17.194C22.8305 16.3571 22.172 15.679 21.1372 15.679H17.4386V18.7098V18.7089ZM23.6232 22.6486C23.6232 21.7369 22.9039 20.9986 21.7947 20.9986H17.4395V24.2985H21.7947C22.9039 24.2985 23.6232 23.5602 23.6232 22.6486ZM50.7278 21.9276C50.7278 21.9276 46.5286 15.8935 45.1291 13.8821C44.5668 13.0736 43.4594 12.8774 42.6567 13.4432C42.1824 13.7772 41.8994 14.3403 41.8994 14.9225C41.8994 17.8766 41.8994 26.7233 41.8994 26.7233H44.7364V18.0536C44.7364 18.0536 48.9339 24.085 50.3333 26.0955C50.8956 26.904 52.003 27.1002 52.8057 26.5344C53.28 26.2004 53.563 25.6373 53.563 25.0551V13.2543H50.7278V21.9276ZM82.6657 26.7233H85.6107V13.2543H82.6657V26.7233ZM68.1452 19.9217C68.1452 24.3597 64.9001 26.7233 61.2178 26.7233H57.4367C56.7737 26.7233 56.2993 26.2451 56.2993 25.5789V14.3996C56.2993 13.7325 56.7746 13.2552 57.4367 13.2552H61.2514C64.9336 13.2552 68.1452 15.3952 68.1452 19.9226V19.9217ZM65.0316 19.9217C65.0316 16.7039 62.6499 15.679 60.641 15.679H59.1363V24.2995H60.5739C62.9392 24.2995 65.0316 23.0501 65.0316 19.9217ZM36.0232 14.4479C37.2558 17.517 40.9526 26.7242 40.9526 26.7242H37.9224L36.7206 23.6479H31.258L30.0563 26.7242H27.0524C27.0524 26.7242 30.7492 17.517 31.9818 14.4479C32.3736 13.4733 33.1536 12.986 34.0025 12.986C34.8514 12.986 35.6323 13.4733 36.0232 14.4479ZM35.8264 21.3581L33.9889 16.6537L32.1514 21.3581H35.8255H35.8264ZM76.7895 14.4479C78.0221 17.517 81.7189 26.7242 81.7189 26.7242H78.6887L77.487 23.6479H72.0243L70.8226 26.7242H67.8187C67.8187 26.7242 71.5155 17.517 72.7481 14.4479C73.1399 13.4733 73.9199 12.986 74.7688 12.986C75.6177 12.986 76.3986 13.4733 76.7895 14.4479ZM76.5927 21.3581L74.7552 16.6537L72.9177 21.3581H76.5918H76.5927Z" fill="black"/>
</g>
<defs>
<clipPath id="clip0_3630_46649">
<rect width="175" height="48" fill="white" transform="translate(0.898438 0.992432)"/>
</clipPath>
</defs>
</svg>
