<?xml version="1.0" encoding="utf-8"?>
<!-- Generator: Adobe Illustrator 28.0.0, SVG Export Plug-In . SVG Version: 6.00 Build 0)  -->
<svg version="1.1" id="Logo" xmlns="http://www.w3.org/2000/svg" xmlns:xlink="http://www.w3.org/1999/xlink" x="0px" y="0px"
	 viewBox="0 0 405.4 90.9" style="enable-background:new 0 0 405.4 90.9;" xml:space="preserve">
<style type="text/css">
	.st0{fill:#FFFFFF;}
</style>
<g id="PS5_x5F_F_x5F_A_x5F_Pos">
	<path class="st0" d="M48.2,2.9c7.6,1.4,18.8,4.8,24.7,6.8C88.1,14.9,93.3,21.4,93.3,36c0,14.3-8.8,19.7-20,14.3V23.7
		c0-3.1-0.6-6-3.5-6.8c-2.2-0.7-3.6,1.4-3.6,4.5V88l-18-5.7V2.9 M69.6,86.7l39.2-14.1c0,0,5.3-2,7.4-4.7c2.1-2.7,1.2-6.7-7.3-9.3
		c-7.5-2.8-17.1-3.8-24.9-2.9c-7.8,0.8-13.4,2.8-13.4,2.8l-1.1,0.4v10.8l19.2-6.8c3.3-1.2,8.1-1.4,10.8-0.6c2.6,0.9,2.1,2.5-1.1,3.7
		L69.6,76.4V86.7z M15.3,75.3c9.3,3.1,18.8,3.7,27.7,2.2c0.6-0.1,1.2-0.2,1.8-0.3v-9.3l-8.9,3.2c-3.3,1.2-8,1.5-10.7,0.6
		c-2.6-0.9-2.1-2.5,1.1-3.7l18.5-6.6V50.9L19,60c0,0-6.2,2-9.9,4.7C5.1,67.7,6.6,72.8,15.3,75.3 M110.1,79.5c-2.5,0-4.3,1.9-4.3,4.3
		c0,2.4,1.7,4.3,4.3,4.3c2.5,0,4.2-1.9,4.2-4.3C114.4,81.3,112.7,79.5,110.1,79.5 M110.1,87.3c-2.2,0-3.6-1.6-3.6-3.6
		c0-2,1.4-3.6,3.6-3.6c2.1,0,3.6,1.6,3.6,3.6C113.7,85.7,112.3,87.3,110.1,87.3 M108.4,86.2h0.9v-2.1h0.6c0.7,0,0.9,0.2,1,0.7
		c0.1,0.3,0.3,1,0.4,1.3h0.9c-0.1-0.5-0.3-1-0.5-1.5c-0.2-0.6-0.4-0.8-0.7-0.9v0c0.6-0.2,0.9-0.6,0.9-1.2c0-1-0.7-1.3-1.6-1.3h-1.9
		V86.2z M109.3,81.9h0.8c0.5,0,0.9,0.1,0.9,0.8c0,0.6-0.4,0.8-1,0.8h-0.8V81.9z M249.2,70.9c7.6,0,13.7-6.1,13.7-13.7V33.6
		c0-4.6,3.7-8.3,8.3-8.3h26.6c0.2,0,0.4-0.2,0.4-0.4v-4.7c0-0.2-0.2-0.4-0.4-0.4h-32.1c-7.6,0-13.7,6.1-13.7,13.7v23.6
		c0,4.6-3.7,8.3-8.3,8.3h-26.2c-0.2,0-0.4,0.2-0.4,0.4v4.7c0,0.2,0.2,0.4,0.4,0.4H249.2z M309.1,39.1c0,4.6,3.7,8.3,8.3,8.3h46.9
		c5,0,9.2,4.1,9.1,9.1c0,5-4.1,9-9.1,9c0,0-41.1,0-54.8,0c-0.2,0-0.4,0.2-0.4,0.4v4.7c0,0.2,0.2,0.4,0.4,0.4h60.3
		c8,0,14.5-6.5,14.5-14.5s-6.5-14.5-14.5-14.5h-45.8c-2.2,0-3.9-1.8-3.9-3.9V25.7c0-0.2,0.2-0.4,0.4-0.4h61.6c0.2,0,0.4-0.2,0.4-0.4
		v-4.7c0-0.2-0.2-0.4-0.4-0.4h-72.5c-0.2,0-0.4,0.2-0.4,0.4C309.1,23.1,309.1,32.2,309.1,39.1 M159.3,41.9
		c-7.6,0-13.7,6.1-13.7,13.7c0,0,0,10.9,0,15c0,0.2,0.2,0.4,0.4,0.4h10.2c0.2,0,0.4-0.2,0.4-0.4v-15c0-4.6,3.7-8.3,8.3-8.3H207
		c7.6,0,13.7-6.1,13.7-13.7c0-7.6-6.1-13.7-13.7-13.7h-61c-0.2,0-0.4,0.2-0.4,0.4V25c0,0.2,0.2,0.4,0.4,0.4h55.6
		c4.6,0,8.3,3.7,8.3,8.3c0,4.6-3.7,8.3-8.3,8.3H159.3z M398.5,66.6c0,2.4-1.7,4.3-4.2,4.3c-2.5,0-4.3-1.9-4.3-4.3
		c0-2.4,1.7-4.3,4.3-4.3C396.8,62.4,398.5,64.2,398.5,66.6z M397.8,66.6c0-2-1.4-3.6-3.6-3.6c-2.2,0-3.6,1.6-3.6,3.6
		c0,2,1.4,3.6,3.6,3.6C396.4,70.2,397.8,68.6,397.8,66.6z M395.8,67.5c0.2,0.5,0.3,1.1,0.5,1.5h-0.9c-0.1-0.4-0.3-1-0.4-1.3
		c-0.1-0.6-0.3-0.7-1-0.7h-0.6v2.1h-0.9v-4.9h1.9c0.9,0,1.6,0.3,1.6,1.3c0,0.6-0.3,1-0.9,1.2v0C395.5,66.7,395.7,67,395.8,67.5z
		 M395.2,65.5c0-0.7-0.5-0.8-0.9-0.8h-0.8v1.6h0.8C394.8,66.4,395.2,66.1,395.2,65.5z"/>
</g>
</svg>
