<svg width="150" height="46" viewBox="0 0 150 46" fill="none" xmlns="http://www.w3.org/2000/svg">
<g clip-path="url(#clip0_3040_39155)">
<path d="M22.5312 0.761719C10.6573 0.761719 0.925169 9.9214 0 21.5601L12.1192 26.5693C13.1466 25.8691 14.3887 25.455 15.7228 25.455C15.8403 25.455 15.963 25.455 16.0806 25.4653L21.468 17.655C21.468 17.6192 21.468 17.5834 21.468 17.5425C21.468 12.84 25.2914 9.01668 29.9939 9.01668C34.6964 9.01668 38.5197 12.84 38.5197 17.5425C38.5197 22.2451 34.6964 26.0684 29.9939 26.0684C29.9274 26.0684 29.8661 26.0684 29.7996 26.0684L22.112 31.553C22.112 31.6552 22.1172 31.7523 22.1172 31.8545C22.1172 35.3865 19.2445 38.2541 15.7176 38.2541C12.6201 38.2541 10.0286 36.0408 9.44081 33.112L0.776937 29.534C3.46044 39.0259 12.1805 45.9825 22.5312 45.9825C35.0184 45.9825 45.1441 35.8568 45.1441 23.3696C45.1441 10.8823 35.0235 0.761719 22.5312 0.761719Z" fill="white"/>
<path d="M14.1681 35.0697L11.3926 33.9247C11.8833 34.947 12.7369 35.8057 13.8665 36.2811C16.3098 37.2982 19.1262 36.1379 20.1485 33.6947C20.6392 32.5088 20.6443 31.2054 20.1536 30.0196C19.668 28.8337 18.7428 27.9085 17.5621 27.4127C16.3864 26.922 15.129 26.9425 14.0199 27.3616L16.8874 28.5475C18.6917 29.2989 19.5402 31.369 18.7888 33.1733C18.0374 34.9777 15.9673 35.8313 14.163 35.0748L14.1681 35.0697Z" fill="white"/>
<path d="M35.6784 17.5423C35.6784 14.409 33.1278 11.8584 29.9945 11.8584C26.8611 11.8584 24.3105 14.409 24.3105 17.5423C24.3105 20.6756 26.8611 23.2262 29.9945 23.2262C33.1278 23.2262 35.6784 20.6756 35.6784 17.5423ZM25.7366 17.5321C25.7366 15.1757 27.6483 13.264 30.0047 13.264C32.361 13.264 34.2727 15.1757 34.2727 17.5321C34.2727 19.8885 32.361 21.8001 30.0047 21.8001C27.6483 21.8001 25.7366 19.8885 25.7366 17.5321Z" fill="white"/>
<path d="M69.2914 16.2342L67.7784 18.8972C66.613 18.0794 65.0285 17.5887 63.6484 17.5887C62.069 17.5887 61.0927 18.243 61.0927 19.4135C61.0927 20.8345 62.8254 21.1667 65.4067 22.0919C68.1771 23.0733 69.7719 24.2233 69.7719 26.7586C69.7719 30.2293 67.0424 32.1818 63.1168 32.1818C61.2051 32.1818 58.8948 31.686 57.1211 30.6075L58.2252 27.6531C59.6666 28.4147 61.3891 28.8645 62.9277 28.8645C64.9978 28.8645 65.9843 28.0978 65.9843 26.9733C65.9843 25.6801 64.4816 25.2916 62.0587 24.4891C59.2986 23.5691 57.3818 22.3577 57.3818 19.5464C57.3818 16.3773 59.917 14.5576 63.5666 14.5576C66.1121 14.5576 68.1567 15.3652 69.2914 16.2239V16.2342Z" fill="white"/>
<path d="M81.1343 17.9153V31.8899H77.5666V17.9153H72.3887V14.8535H86.2969V17.9153H81.1343Z" fill="white"/>
<path d="M93.8205 17.905V21.7437H100.649V24.8055H93.8205V28.8026H101.743V31.8899H90.2578V14.8535H101.743V17.905H93.8205Z" fill="white"/>
<path d="M109.701 28.5828L108.572 31.8899H104.83L111.219 14.8535H114.808L121.376 31.8899H117.512L116.361 28.5828H109.701ZM112.998 18.9222L110.672 25.7409H115.375L112.998 18.9222Z" fill="white"/>
<path d="M139.685 21.437L135.023 31.389H133.009L128.424 21.5239V31.8848H125.01V14.8535H128.419L134.144 27.1516L139.664 14.8535H143.104V31.8899H139.69V21.4421L139.685 21.437Z" fill="white"/>
<path d="M149.999 17.0055C149.999 18.4674 148.9 19.3823 147.643 19.3823C146.385 19.3823 145.281 18.4674 145.281 17.0055C145.281 15.5436 146.38 14.6338 147.643 14.6338C148.905 14.6338 149.999 15.5385 149.999 17.0055ZM145.675 17.0055C145.675 18.2322 146.554 18.999 147.643 18.999C148.731 18.999 149.6 18.2322 149.6 17.0055C149.6 15.7787 148.721 15.0171 147.643 15.0171C146.564 15.0171 145.675 15.7839 145.675 17.0055ZM147.673 15.7941C148.282 15.7941 148.491 16.1161 148.491 16.4637C148.491 16.7857 148.302 17.0004 148.072 17.1077L148.619 18.1351H148.169L147.709 17.2253H147.234V18.1351H146.861V15.7941H147.679H147.673ZM147.234 16.8828H147.653C147.924 16.8828 148.082 16.7141 148.082 16.4995C148.082 16.2848 147.97 16.1468 147.653 16.1468H147.239V16.8828H147.234Z" fill="white"/>
</g>
<defs>
<clipPath id="clip0_3040_39155">
<rect width="150" height="45.2208" fill="white" transform="translate(0 0.761719)"/>
</clipPath>
</defs>
</svg>
