<svg _ngcontent-tekken-c104="" width="281" height="220" viewBox="0 0 281 220" fill="none" xmlns="http://www.w3.org/2000/svg" fillAnimation="" clipIdentifier="#theSquare"><defs _ngcontent-tekken-c104=""><clipPath _ngcontent-tekken-c104="" id="theClipPath"><rect _ngcontent-tekken-c104="" id="theSquare" x="0" y="0" width="100%" height="100%" fill="transparent" style="translate: none; rotate: none; scale: none; transform-origin: 0px 0px; --darkreader-inline-fill: transparent;" data-svg-origin="0 0" transform="matrix(1,0,0,1,-264.983,0)" data-darkreader-inline-fill=""/></clipPath></defs><g _ngcontent-tekken-c104="" clip-path="url(#theClipPath)" fill="#F50A64" class="eight" data-darkreader-inline-fill="" style="--darkreader-inline-fill: #c40850;"><path _ngcontent-tekken-c104="" d="M223.427 80.036L272.054 55.7173L279.001 67.0081L269.449 82.6416V86.1157L265.107 92.1954L260.766 94.8009L249.477 112.171L182.615 145.175H146.145L127.91 154.729L109.675 181.654L113.148 187.733L65.3896 212.052L55.8379 197.287L66.258 181.654L65.3896 179.048L70.5996 172.1L74.073 170.363L85.3614 152.992L161.775 114.777H190.43L206.06 106.092L223.427 80.036Z" stroke="white" stroke-width="2" paint-order="stroke" data-darkreader-inline-stroke="" style="--darkreader-inline-stroke: #e8e6e3;"/><path _ngcontent-tekken-c104="" d="M186.087 151.255L213.874 137.358L224.294 154.729L213.006 171.231L213.874 173.836L208.664 180.785L205.19 182.522L193.902 199.024L153.09 219H70.598L68.8613 217.263L118.357 192.944H142.67L160.905 183.39L180.009 155.597L176.535 151.255H186.087Z" stroke="white" stroke-width="2" paint-order="stroke" data-darkreader-inline-stroke="" style="--darkreader-inline-stroke: #e8e6e3;"/><path _ngcontent-tekken-c104="" d="M180.878 46.1636H266.843L268.58 49.6377L217.348 74.8249H190.429L174.799 82.6417L157.432 108.697L119.226 127.805L109.674 111.303L120.094 94.801L119.226 93.064L124.436 85.2472L127.909 83.5102L139.197 66.1397L180.878 46.1636Z" stroke="white" stroke-width="2" paint-order="stroke" data-darkreader-inline-stroke="" style="--darkreader-inline-stroke: #e8e6e3;"/></g><g _ngcontent-tekken-c104="" clip-path="url(#theClipPath)" fill="white" class="T" data-darkreader-inline-fill="" style="--darkreader-inline-fill: #181a1b;"><path _ngcontent-tekken-c104="" d="M2 1H257.292L193.903 33.1355H148.749L75.8088 139.096H94.9122L29.7868 169.494H2L94.0439 33.1355H65.3887L2 1Z" stroke="white" stroke-width="2" data-darkreader-inline-stroke="" style="--darkreader-inline-stroke: #e8e6e3;"/></g><g _ngcontent-tekken-c104="" fill="transparent" class="eight" data-darkreader-inline-fill="" style="--darkreader-inline-fill: transparent;"><path _ngcontent-tekken-c104="" d="M223.427 80.036L272.054 55.7173L279.001 67.0081L269.449 82.6416V86.1157L265.107 92.1954L260.766 94.8009L249.477 112.171L182.615 145.175H146.145L127.91 154.729L109.675 181.654L113.148 187.733L65.3896 212.052L55.8379 197.287L66.258 181.654L65.3896 179.048L70.5996 172.1L74.073 170.363L85.3614 152.992L161.775 114.777H190.43L206.06 106.092L223.427 80.036Z" stroke="white" stroke-width="2" paint-order="stroke" data-darkreader-inline-stroke="" style="--darkreader-inline-stroke: #e8e6e3;"/><path _ngcontent-tekken-c104="" d="M186.087 151.255L213.874 137.358L224.294 154.729L213.006 171.231L213.874 173.836L208.664 180.785L205.19 182.522L193.902 199.024L153.09 219H70.598L68.8613 217.263L118.357 192.944H142.67L160.905 183.39L180.009 155.597L176.535 151.255H186.087Z" stroke="white" stroke-width="2" paint-order="stroke" data-darkreader-inline-stroke="" style="--darkreader-inline-stroke: #e8e6e3;"/><path _ngcontent-tekken-c104="" d="M180.878 46.1636H266.843L268.58 49.6377L217.348 74.8249H190.429L174.799 82.6417L157.432 108.697L119.226 127.805L109.674 111.303L120.094 94.801L119.226 93.064L124.436 85.2472L127.909 83.5102L139.197 66.1397L180.878 46.1636Z" stroke="white" stroke-width="2" paint-order="stroke" data-darkreader-inline-stroke="" style="--darkreader-inline-stroke: #e8e6e3;"/></g><g _ngcontent-tekken-c104="" fill="transparent" data-darkreader-inline-fill="" style="--darkreader-inline-fill: transparent;"><path _ngcontent-tekken-c104="" d="M2 1H257.292L193.903 33.1355H148.749L75.8088 139.096H94.9122L29.7868 169.494H2L94.0439 33.1355H65.3887L2 1Z" stroke="white" stroke-width="2" data-darkreader-inline-stroke="" style="--darkreader-inline-stroke: #e8e6e3;"/></g></svg>